<svg id="Layer_1" data-name="Layer 1" xmlns="http://www.w3.org/2000/svg" viewBox="0 0 592.5 417.66"><defs><style>.cls-1{fill:#231f20;}</style></defs><path class="cls-1" d="M436.94,22.64C445,3.22,466.05,0,466.05,0c-16.24-.5-67.95,7.74-72.66,59-1.55,16.88,4.69,31.09,11.69,42.84-8.71-6.62-19.21-17.9-20.76-33.09C383,56.44,389.53,37.5,389.53,37.5c-12.4,14.67-25.64,33-22.75,57.89,2.71,23.17,18.13,38.82,28.57,51.92-7.64-3.73-12.44-7.57-19.48-14.93,2.27,27.81,11,49.2,30.5,59.71-24.9-2.38-29.87-19.92-37-39.58-4.95-13.7-13.21-21.44-20.77-29.86,11.7,2.36,18.32,9.81,24,18.18-3.71-24-21-34.4-45.45-37.65,10.36-9.39,27.53-.16,35.49,4.34,0,0-5-9.88-9.53-14.72C341.19,80,315,83,299.29,88.24c5.66-9.88,21.09-17.51,34.4-13.61a51.27,51.27,0,0,0-31.16-13c-22-1.48-40.43,10.59-51.27,18.82,2.64-14.24,14.14-19.62,24.66-26-36.74-6.11-55.35,16.82-67.49,39.6-1.12-14,11.14-29.78,11.14-29.78-45,18.59-38.41,69.37-38.41,69.37-8.28-5-8-23.74-5.19-32.46a60.46,60.46,0,0,0-9.45,31.43c-.28,18.71,12.85,38.65,12.85,38.65-13.51-1.89-21.92-28.92-21.92-28.92-7.37,38,25,68.6,25,68.6-14.55-1.51-27.11-19.75-27.11-19.75,5.19,37.51,38.29,57.73,38.29,57.73-10.35,2.13-25.49-8.19-25.49-8.19,12.71,28.84,31.51,42.68,31.51,42.68C188.16,284,176,270,176,270c-1,13.42,6.43,31.09,6.43,31.09-11.81-4.16-15.31-21.07-15.31-21.07-9.64,13.51-7.75,33.54-7.75,33.54C147.91,306,148.76,290,148.76,290c-11.15,5.58-17.6,27.76-17.6,27.76-5.58-12,.31-26.05.31-26.05-15.49,4-25.32,22.3-25.32,22.3-1-11.22,6.16-24.41,6.16-24.41-12.18.38-22.6,17.7-22.6,17.7-2.13-11.46,8.69-24,8.69-24-13.41-1.41-24.94,13-24.94,13-1.61-13.23,11.34-23,11.34-23-14.27-3.4-24.92,9.26-24.92,9.26-2-13.89,13.18-23.6,13.18-23.6-11.44-4.91-23.88,5.27-23.88,5.27-1.42-14.17,14.32-22.21,14.32-22.21-9.63-6.61-22.29-.13-22.29-.13C43.29,230.13,57.75,227,57.75,227c-8.25-9.35-20.53-8.44-20.53-8.44,4.09-10.2,17.52-8.43,17.52-8.43-6.47-9.17-18.25-12.33-18.25-12.33,7.37-6.24,17.85-1.92,17.85-1.92-2.93-10.14-15-16.08-15-16.08,9.45-3.12,18.45,3.12,18.45,3.12-1.14-9.26-11-17.83-11-17.83,11,.48,18.51,8.47,18.51,8.47-.09-7.93-5.51-17.6-5.51-17.6,8.88,2.74,16.76,11.74,16.76,11.74.94-7.46-1.21-12-1.21-12,14.78,5.56,24,16.72,31.8,29.2-4-23-18.49-39.55-41.53-41.53C25.51,140-.08,185.48,0,218.83c.09,38.9,13.27,64.77,30.63,90,20.15,29.27,55,51.82,87.65,58.54-10.4,3.36-20.16,11.68-20.16,21.28,17,1.12,30.87,8.79,38.08,18.07h59.52c14.45,0,27.62-.31,32.17-1.29,11-2.35,16.1-27.1,29.22-26.61s9.19,21.52-2,22.06c-3.64.19-5.35-1.53-8.43-2.58,11.78,28.19,46.8-3.69,30.49-23.37,19,.76,17.75,25.37,4.55,27.91,20.75,2,26.77-18.65,17.23-33.57s-28.53-12.1-43.75-4.92-28.91,12.76-39,14c-8.15,1-16.1.56-21.42-2.6-15.54-9.21,12.14-24.49,18.82-28.56,24.54-14.89,50.69-32.74,53.22-68.14,1.9-26.4-8-40.18-16.23-56.46-6.71-13.37-13.82-26.81-14.92-44.14-1.49-23.59,15.91-41.15,37-40.24,29.59,1.27,44.74,24.82,46.73,54.52.78,11.77-1.8,25.8-2.59,37.65-3.31,49.27,20.33,74.51,46.72,97.35,24.2,20.93,47.92,34.55,77.89,47.38,2.08,19,13.64,39.9,36.34,29.86,11.77,20.24,55.44,16.46,49.33-13-2.85-13.74-23.14-15.74-21.71-31.43.69-7.47,9.27-11.52,17.17-8.82,8.35,2.88,12.3,15.6,11.68,24.67,13.09-21.84-.24-53.71-27.25-47.38-13.73,3.21-27.27,27.27-27.27,27.27-17.42-9.42-34.07-18.77-34.07-18.77,40-2,65.31-19.67,80.16-46.79,19.31,4.47,32.38-8.84,27.25-24.67,0,0,16.88,5.2,18.8,19s-16.52,17-27,10.23c0,0,8.85,21.14,25.81,17s15.12-22.14,11.43-29.3-19-20.69-15-29.83,22.39-3,19.7,20.66c13.43-18.78,1.62-48.69-20.11-48.69-16.1,0-22.49,13.73-26.63,27.92a20.73,20.73,0,0,0-11-.65c-3.33-22.8-17.71-37.66-40.88-46.73-20.72-8.12-40.86-22.17-42.84-44.79-.93-10.66,2.43-19.29,10.38-23.36,20.75-10.6,34.7,12.24,38.3,27.27-.24-17.65,6.42-26.13,14.27-35.06-6.31-10.56-18.61-19.61-35-17.53-11.39,1.44-22.4,7.6-22.4,7.6C456.2,107.63,465.54,86,486.21,85c16.78-.8,24.94,14,29.86,28.56,2.77-27.51,17.45-46.57,31.15-61C531.23,62,523,42.17,507.63,42.17c-22,0-32.59,24.27-51.27,26.62-7.8,1-13.67-4.59-16.88-7.14C433.56,57,428.86,42.05,436.94,22.64Zm73.41,28.44c5.5.28,11,3.52,10.91,8-.1,6.83-6.59,8.49-11.62,8-6.76-.67-9.9-4.58-9.81-8.6C499.93,53.74,504.82,50.8,510.35,51.08ZM418.7,274.53c-5.62,1.06-12.67-1.33-16.87-4.54-13.54-10.4-19.11-38.29-20.11-59.72,5.79,12.31,15,31.76,31.79,26.62,5.73-1.76,12.51-9.39,12.51-9.39,5.24,14.29,9.62,43.82-7.32,47M435.85,93.17c-7.61-2.92-5.46-26.34-5.46-26.34A17.12,17.12,0,0,0,455.7,78.52S444.59,96.52,435.85,93.17Zm74.71,306.45c-6.66,10.92-24.87-1.2-24.87-1.2,5.24-4,8.57-11.13,9.71-19.84C504.61,379.21,517.63,388.05,510.56,399.62Zm-43.79-16.3s-1.85,10.11-7.73,7.2-7.28-11.82-7.28-11.82A95.25,95.25,0,0,0,466.77,383.32Zm61-99.7c1.57-5.5,1.6-10.82,1.29-16.88,9.35,1.89,8.73,16.17-1.29,16.88"/></svg>